<svg width="18" height="24" viewBox="0 0 18 24" fill="none" xmlns="http://www.w3.org/2000/svg">
<path d="M12.3923 17.9995L12.5657 21.5151L9.00963 19.0439L5.43367 21.5175L5.60716 17.9995H4.10533L3.84648 23.2495H5.56642L9.00766 20.8692L12.433 23.2495H14.153L13.8941 17.9995H12.3923ZM16.472 7.26114L16.3692 5.00861L14.47 3.79328L13.2545 1.89395L11.0019 1.79083L8.99973 0.753906L6.99756 1.79106L4.74498 1.89419L3.52942 3.79328L1.63028 5.00861L1.52744 7.26114L0.490234 9.26336L1.52744 11.2656L1.63056 13.5181L3.52942 14.7334L4.7448 16.6328L6.99738 16.7357L8.99973 17.7729L11.0019 16.7357L13.2545 16.6328L14.4699 14.7334L16.3691 13.5183L16.472 11.2658L17.5092 9.26355L16.472 7.26114ZM14.9886 10.8681L14.906 12.6735L13.3837 13.6475L12.4097 15.1698L10.6043 15.2523L8.99973 16.0835L7.39502 15.2523L5.58963 15.1698L4.61556 13.6475L3.09348 12.6735L3.01103 10.8681L2.17942 9.26336L3.01084 7.65892L3.09348 5.8533L4.61556 4.87923L5.58963 3.35702L7.39502 3.27452L8.99973 2.44323L10.6045 3.27447L12.4098 3.35697L13.3839 4.87919L14.906 5.8533L14.9884 7.65869L15.82 9.26336L14.9886 10.8681Z" fill="white"/>
</svg>
