<svg width="154" height="80" viewBox="0 0 154 80" fill="none" xmlns="http://www.w3.org/2000/svg">
<path d="M84.2036 19.1035L102.327 30.2315L96.9966 43.6954C96.3498 45.3364 94.2176 45.7557 92.9958 44.474L59.6357 9.60458C57.6832 7.55625 60.2346 4.38195 62.6543 5.86728L84.2036 19.1035Z" fill="#FD6288"/>
<path d="M112.533 4.44015L105.621 21.9168C105.202 22.9829 103.92 23.4021 102.95 22.8032L93.4273 16.9457C92.3372 16.2749 92.2534 14.7297 93.2476 13.9391L108.784 1.64916C110.724 0.103937 113.443 2.14028 112.533 4.42817V4.44015Z" fill="#FD6288"/>
<path d="M62.3664 19.7619L45.5366 0.907776C43.644 -1.21242 40.29 1.08745 41.5717 3.61492L63.5043 46.6057C64.3069 48.1749 66.463 48.3905 67.565 47.001L74.0933 38.7359C75.5068 36.9391 75.4349 34.3877 73.9136 32.6867L62.3784 19.7619H62.3664Z" fill="#FD6288"/>
<path d="M15.6226 58.2574L12.8415 68.9258H9.69575L7.99367 61.9047L6.23081 68.9258H3.08501L0.379927 58.2574H3.161L4.6959 66.0231L6.59554 58.2574H9.45259L11.2762 66.0231L12.8263 58.2574H15.6226ZM20.7859 69.0474C19.9552 69.0474 19.2054 68.8701 18.5368 68.5155C17.8782 68.1609 17.3565 67.6543 16.9715 66.9958C16.5966 66.3372 16.4092 65.5672 16.4092 64.6858C16.4092 63.8145 16.6017 63.0496 16.9867 62.391C17.3717 61.7224 17.8985 61.2107 18.5672 60.8561C19.2358 60.5015 19.9856 60.3242 20.8163 60.3242C21.6471 60.3242 22.3968 60.5015 23.0655 60.8561C23.7342 61.2107 24.261 61.7224 24.646 62.391C25.031 63.0496 25.2235 63.8145 25.2235 64.6858C25.2235 65.5571 25.0259 66.3271 24.6308 66.9958C24.2458 67.6543 23.7139 68.1609 23.0351 68.5155C22.3664 68.8701 21.6167 69.0474 20.7859 69.0474ZM20.7859 66.7982C21.2824 66.7982 21.7028 66.6158 22.0473 66.2511C22.4019 65.8864 22.5792 65.3646 22.5792 64.6858C22.5792 64.007 22.407 63.4852 22.0625 63.1205C21.7282 62.7558 21.3128 62.5734 20.8163 62.5734C20.3098 62.5734 19.8893 62.7558 19.555 63.1205C19.2206 63.4751 19.0535 63.9969 19.0535 64.6858C19.0535 65.3646 19.2156 65.8864 19.5398 66.2511C19.8741 66.6158 20.2895 66.7982 20.7859 66.7982ZM37.4225 60.3546C38.4762 60.3546 39.312 60.6738 39.93 61.312C40.5582 61.9503 40.8722 62.8368 40.8722 63.9715V68.9258H38.2887V64.3211C38.2887 63.774 38.1418 63.3535 37.848 63.0597C37.5643 62.7558 37.1692 62.6038 36.6626 62.6038C36.1561 62.6038 35.7559 62.7558 35.4621 63.0597C35.1784 63.3535 35.0365 63.774 35.0365 64.3211V68.9258H32.453V64.3211C32.453 63.774 32.3061 63.3535 32.0123 63.0597C31.7286 62.7558 31.3335 62.6038 30.8269 62.6038C30.3204 62.6038 29.9202 62.7558 29.6264 63.0597C29.3427 63.3535 29.2009 63.774 29.2009 64.3211V68.9258H26.6022V60.4458H29.2009V61.5096C29.4643 61.155 29.8087 60.8764 30.2343 60.6738C30.6598 60.461 31.141 60.3546 31.678 60.3546C32.3163 60.3546 32.8836 60.4914 33.3801 60.7649C33.8866 61.0385 34.2818 61.4285 34.5654 61.9351C34.8592 61.4691 35.2594 61.0891 35.766 60.7953C36.2726 60.5015 36.8247 60.3546 37.4225 60.3546ZM50.6834 64.549C50.6834 64.7922 50.6682 65.0455 50.6378 65.3089H44.7565C44.797 65.8357 44.9642 66.241 45.258 66.5246C45.562 66.7982 45.9318 66.935 46.3674 66.935C47.0158 66.935 47.4667 66.6614 47.7199 66.1143H50.4858C50.344 66.6715 50.0856 67.173 49.7108 67.6188C49.346 68.0646 48.8851 68.4141 48.3278 68.6674C47.7706 68.9207 47.1475 69.0474 46.4586 69.0474C45.6278 69.0474 44.8882 68.8701 44.2398 68.5155C43.5914 68.1609 43.0848 67.6543 42.7201 66.9958C42.3554 66.3372 42.173 65.5672 42.173 64.6858C42.173 63.8044 42.3503 63.0344 42.7049 62.3758C43.0696 61.7173 43.5762 61.2107 44.2246 60.8561C44.873 60.5015 45.6177 60.3242 46.4586 60.3242C47.2792 60.3242 48.0087 60.4965 48.647 60.8409C49.2852 61.1854 49.7817 61.6768 50.1363 62.315C50.501 62.9533 50.6834 63.698 50.6834 64.549ZM48.0239 63.8651C48.0239 63.4194 47.8719 63.0648 47.568 62.8014C47.264 62.5379 46.8841 62.4062 46.4282 62.4062C45.9925 62.4062 45.6227 62.5329 45.3188 62.7862C45.025 63.0394 44.8426 63.3991 44.7717 63.8651H48.0239ZM57.2213 60.3546C58.2142 60.3546 59.0045 60.6788 59.5921 61.3272C60.1898 61.9655 60.4887 62.8469 60.4887 63.9715V68.9258H57.9052V64.3211C57.9052 63.7537 57.7583 63.313 57.4645 62.9989C57.1707 62.6848 56.7756 62.5278 56.2791 62.5278C55.7827 62.5278 55.3876 62.6848 55.0937 62.9989C54.7999 63.313 54.653 63.7537 54.653 64.3211V68.9258H52.0543V60.4458H54.653V61.5704C54.9164 61.1955 55.271 60.9017 55.7168 60.689C56.1626 60.4661 56.6641 60.3546 57.2213 60.3546ZM74.7549 58.2574V68.9258H72.1562V64.5338H68.1137V68.9258H65.515V58.2574H68.1137V62.4366H72.1562V58.2574H74.7549ZM84.6245 64.549C84.6245 64.7922 84.6093 65.0455 84.579 65.3089H78.6977C78.7382 65.8357 78.9054 66.241 79.1992 66.5246C79.5031 66.7982 79.8729 66.935 80.3086 66.935C80.957 66.935 81.4078 66.6614 81.6611 66.1143H84.427C84.2851 66.6715 84.0268 67.173 83.6519 67.6188C83.2872 68.0646 82.8262 68.4141 82.269 68.6674C81.7118 68.9207 81.0887 69.0474 80.3998 69.0474C79.569 69.0474 78.8294 68.8701 78.181 68.5155C77.5326 68.1609 77.026 67.6543 76.6613 66.9958C76.2965 66.3372 76.1142 65.5672 76.1142 64.6858C76.1142 63.8044 76.2915 63.0344 76.6461 62.3758C77.0108 61.7173 77.5174 61.2107 78.1658 60.8561C78.8142 60.5015 79.5588 60.3242 80.3998 60.3242C81.2204 60.3242 81.9499 60.4965 82.5881 60.8409C83.2264 61.1854 83.7228 61.6768 84.0774 62.315C84.4422 62.9533 84.6245 63.698 84.6245 64.549ZM81.9651 63.8651C81.9651 63.4194 81.8131 63.0648 81.5091 62.8014C81.2052 62.5379 80.8253 62.4062 80.3694 62.4062C79.9337 62.4062 79.5639 62.5329 79.26 62.7862C78.9662 63.0394 78.7838 63.3991 78.7129 63.8651H81.9651ZM88.5942 57.6799V68.9258H85.9955V57.6799H88.5942ZM93.0761 61.6464C93.3294 61.2512 93.679 60.9321 94.1247 60.689C94.5705 60.4458 95.0923 60.3242 95.69 60.3242C96.3891 60.3242 97.0223 60.5015 97.5897 60.8561C98.157 61.2107 98.6028 61.7173 98.927 62.3758C99.2614 63.0344 99.4285 63.7993 99.4285 64.6706C99.4285 65.5419 99.2614 66.3119 98.927 66.9806C98.6028 67.6391 98.157 68.1507 97.5897 68.5155C97.0223 68.8701 96.3891 69.0474 95.69 69.0474C95.1024 69.0474 94.5807 68.9258 94.1247 68.6826C93.679 68.4395 93.3294 68.1254 93.0761 67.7404V72.9682H90.4774V60.4458H93.0761V61.6464ZM96.7842 64.6706C96.7842 64.0222 96.6019 63.5156 96.2371 63.1509C95.8825 62.776 95.4418 62.5886 94.915 62.5886C94.3983 62.5886 93.9576 62.776 93.5928 63.1509C93.2383 63.5257 93.061 64.0374 93.061 64.6858C93.061 65.3342 93.2383 65.8458 93.5928 66.2207C93.9576 66.5956 94.3983 66.783 94.915 66.783C95.4317 66.783 95.8724 66.5956 96.2371 66.2207C96.6019 65.8357 96.7842 65.319 96.7842 64.6706ZM107.872 69.0322C107.092 69.0322 106.393 68.9055 105.775 68.6522C105.157 68.3989 104.661 68.0241 104.286 67.5276C103.921 67.0312 103.729 66.4335 103.708 65.7344H106.474C106.515 66.1295 106.652 66.4335 106.885 66.6462C107.118 66.8488 107.422 66.9502 107.796 66.9502C108.181 66.9502 108.485 66.864 108.708 66.6918C108.931 66.5094 109.043 66.2612 109.043 65.9472C109.043 65.6837 108.951 65.4659 108.769 65.2937C108.597 65.1214 108.379 64.9796 108.116 64.8682C107.862 64.7567 107.498 64.6301 107.021 64.4882C106.332 64.2755 105.77 64.0627 105.335 63.85C104.899 63.6372 104.524 63.3231 104.21 62.9077C103.896 62.4923 103.739 61.9503 103.739 61.2816C103.739 60.2888 104.098 59.5137 104.818 58.9565C105.537 58.3891 106.474 58.1055 107.629 58.1055C108.805 58.1055 109.752 58.3891 110.471 58.9565C111.19 59.5137 111.575 60.2938 111.626 61.2968H108.815C108.794 60.9524 108.668 60.6839 108.435 60.4914C108.202 60.2888 107.903 60.1875 107.538 60.1875C107.224 60.1875 106.971 60.2736 106.778 60.4458C106.586 60.6079 106.489 60.846 106.489 61.1601C106.489 61.5045 106.652 61.773 106.976 61.9655C107.3 62.158 107.807 62.3657 108.495 62.5886C109.184 62.8216 109.742 63.0445 110.167 63.2573C110.603 63.47 110.978 63.779 111.292 64.1843C111.606 64.5895 111.763 65.1113 111.763 65.7496C111.763 66.3575 111.606 66.9096 111.292 67.4061C110.988 67.9025 110.542 68.2976 109.954 68.5914C109.367 68.8853 108.673 69.0322 107.872 69.0322ZM112.845 64.701C112.845 63.8601 113.018 63.1104 113.362 62.4518C113.717 61.7933 114.188 61.2816 114.775 60.9169C115.373 60.5421 116.022 60.3546 116.721 60.3546C117.258 60.3546 117.739 60.4509 118.164 60.6434C118.59 60.8257 118.934 61.0841 119.198 61.4184V60.4458H121.797V72.9682H119.198V67.862C118.904 68.2166 118.544 68.5003 118.119 68.713C117.703 68.9258 117.227 69.0322 116.69 69.0322C116.001 69.0322 115.363 68.8498 114.775 68.4851C114.188 68.1203 113.717 67.6087 113.362 66.9502C113.018 66.2916 112.845 65.5419 112.845 64.701ZM119.198 64.6858C119.198 64.2299 119.107 63.85 118.924 63.546C118.752 63.2319 118.524 62.9989 118.24 62.8469C117.957 62.6848 117.658 62.6038 117.344 62.6038C117.04 62.6038 116.746 62.6848 116.462 62.8469C116.179 62.9989 115.946 63.2319 115.763 63.546C115.581 63.8601 115.49 64.2451 115.49 64.701C115.49 65.1569 115.581 65.5419 115.763 65.856C115.946 66.1599 116.179 66.3929 116.462 66.555C116.746 66.707 117.04 66.783 117.344 66.783C117.648 66.783 117.942 66.707 118.225 66.555C118.519 66.3929 118.752 66.1548 118.924 65.8408C119.107 65.5267 119.198 65.1417 119.198 64.6858ZM132.05 60.4458V68.9258H129.451V67.7708C129.188 68.1457 128.828 68.4496 128.372 68.6826C127.927 68.9055 127.43 69.017 126.883 69.017C126.235 69.017 125.662 68.8751 125.166 68.5914C124.669 68.2976 124.284 67.8772 124.011 67.3301C123.737 66.783 123.601 66.1396 123.601 65.4001V60.4458H126.184V65.0505C126.184 65.6179 126.331 66.0586 126.625 66.3727C126.919 66.6867 127.314 66.8438 127.81 66.8438C128.317 66.8438 128.717 66.6867 129.011 66.3727C129.305 66.0586 129.451 65.6179 129.451 65.0505V60.4458H132.05ZM133.4 64.6706C133.4 63.7993 133.562 63.0344 133.886 62.3758C134.221 61.7173 134.672 61.2107 135.239 60.8561C135.806 60.5015 136.44 60.3242 137.139 60.3242C137.736 60.3242 138.258 60.4458 138.704 60.689C139.16 60.9321 139.509 61.2512 139.752 61.6464V60.4458H142.351V68.9258H139.752V67.7252C139.499 68.1203 139.145 68.4395 138.689 68.6826C138.243 68.9258 137.721 69.0474 137.123 69.0474C136.434 69.0474 135.806 68.8701 135.239 68.5155C134.672 68.1507 134.221 67.6391 133.886 66.9806C133.562 66.3119 133.4 65.5419 133.4 64.6706ZM139.752 64.6858C139.752 64.0374 139.57 63.5257 139.205 63.1509C138.851 62.776 138.415 62.5886 137.898 62.5886C137.382 62.5886 136.941 62.776 136.576 63.1509C136.222 63.5156 136.044 64.0222 136.044 64.6706C136.044 65.319 136.222 65.8357 136.576 66.2207C136.941 66.5956 137.382 66.783 137.898 66.783C138.415 66.783 138.851 66.5956 139.205 66.2207C139.57 65.8458 139.752 65.3342 139.752 64.6858ZM143.715 64.6706C143.715 63.7993 143.877 63.0344 144.201 62.3758C144.535 61.7173 144.986 61.2107 145.553 60.8561C146.121 60.5015 146.754 60.3242 147.453 60.3242C148.01 60.3242 148.517 60.4407 148.973 60.6738C149.439 60.9068 149.803 61.2209 150.067 61.616V57.6799H152.666V68.9258H150.067V67.71C149.824 68.1153 149.474 68.4395 149.018 68.6826C148.573 68.9258 148.051 69.0474 147.453 69.0474C146.754 69.0474 146.121 68.8701 145.553 68.5155C144.986 68.1507 144.535 67.6391 144.201 66.9806C143.877 66.3119 143.715 65.5419 143.715 64.6706ZM150.067 64.6858C150.067 64.0374 149.885 63.5257 149.52 63.1509C149.165 62.776 148.73 62.5886 148.213 62.5886C147.696 62.5886 147.255 62.776 146.891 63.1509C146.536 63.5156 146.359 64.0222 146.359 64.6706C146.359 65.319 146.536 65.8357 146.891 66.2207C147.255 66.5956 147.696 66.783 148.213 66.783C148.73 66.783 149.165 66.5956 149.52 66.2207C149.885 65.8458 150.067 65.3342 150.067 64.6858Z" fill="#4A4A4A"/>
</svg>
