<svg width="26" height="27" viewBox="0 0 26 27" fill="none" xmlns="http://www.w3.org/2000/svg">
<g clip-path="url(#clip0_1061_2729)">
<path d="M2.36364 0.5C1.07073 0.5 0 1.57073 0 2.86364V24.1364C0 25.4293 1.07073 26.5 2.36364 26.5H23.6364C24.9293 26.5 26 25.4293 26 24.1364V2.86364C26 1.57073 24.9293 0.5 23.6364 0.5H2.36364ZM2.36364 2.86364H23.6364V24.1364H17.5051V16.1591H20.5707L21.0139 12.6136H17.5063V10.3233C17.5063 9.29036 17.7592 8.58836 19.2412 8.58836H21.1616V5.375C20.8343 5.33364 19.6985 5.26391 18.3926 5.26391C15.6685 5.26391 13.8131 6.90309 13.8131 9.95455V12.6136H10.7108V16.1591H13.8119V24.1364H2.36364V2.86364Z" fill="white"/>
</g>
<defs>
<clipPath id="clip0_1061_2729">
<rect width="26" height="26" fill="white" transform="translate(0 0.5)"/>
</clipPath>
</defs>
</svg>
