<svg width="28" height="29" viewBox="0 0 28 29" fill="none" xmlns="http://www.w3.org/2000/svg">
<g clip-path="url(#clip0_1061_2725)">
<path d="M8.23327 0.5C3.71382 0.5 0 4.20873 0 8.73327V20.2667C0 24.7862 3.70873 28.5 8.23327 28.5H19.7667C24.2862 28.5 28 24.7913 28 20.2667V8.73455C28 4.21382 24.2913 0.5 19.7667 0.5H8.23327ZM8.23327 3.04545H19.7667C20.5139 3.04445 21.254 3.19088 21.9445 3.47637C22.6351 3.76185 23.2625 4.18077 23.7909 4.70914C24.3192 5.2375 24.7381 5.86492 25.0236 6.55545C25.3091 7.24598 25.4555 7.98606 25.4545 8.73327V20.2667C25.4555 21.0139 25.3091 21.754 25.0236 22.4445C24.7381 23.1351 24.3192 23.7625 23.7909 24.2909C23.2625 24.8192 22.6351 25.2381 21.9445 25.5236C21.254 25.8091 20.5139 25.9555 19.7667 25.9545H8.23455C7.48722 25.9557 6.74701 25.8094 6.05633 25.524C5.36565 25.2386 4.73808 24.8197 4.20959 24.2913C3.68109 23.7629 3.26205 23.1355 2.97649 22.4448C2.69092 21.7542 2.54445 21.0141 2.54545 20.2667C2.54545 20.2667 2.54663 9.48187 2.54545 8.73455C2.54428 7.98722 2.69059 7.24701 2.976 6.55633C3.26141 5.86565 3.6803 5.23808 4.20868 4.70959C4.73706 4.18109 5.36454 3.76205 6.05515 3.47649C6.74577 3.19092 7.48595 3.04445 8.23327 3.04545ZM21.5167 5.83018C21.3651 5.82951 21.2149 5.85887 21.0747 5.91658C20.9345 5.97429 20.8071 6.0592 20.6999 6.16641C20.5927 6.27362 20.5077 6.401 20.45 6.54121C20.3923 6.68141 20.363 6.83166 20.3636 6.98327C20.3636 7.62473 20.8753 8.13636 21.5167 8.13636C21.6684 8.13721 21.8188 8.10796 21.9592 8.05033C22.0995 7.9927 22.2271 7.90781 22.3344 7.80059C22.4418 7.69336 22.5268 7.56592 22.5846 7.42563C22.6424 7.28535 22.6718 7.13499 22.6711 6.98327C22.6718 6.83155 22.6424 6.6812 22.5846 6.54091C22.5268 6.40062 22.4418 6.27318 22.3344 6.16596C22.2271 6.05873 22.0995 5.97385 21.9592 5.91621C21.8188 5.85858 21.6684 5.82934 21.5167 5.83018ZM14 6.86364C9.8 6.86364 6.36364 10.3 6.36364 14.5C6.36364 18.7 9.8 22.1364 14 22.1364C18.2 22.1364 21.6364 18.7 21.6364 14.5C21.6364 10.3 18.2 6.86364 14 6.86364ZM14 9.40909C16.8293 9.40909 19.0909 11.6707 19.0909 14.5C19.0909 17.3293 16.8293 19.5909 14 19.5909C11.1707 19.5909 8.90909 17.3293 8.90909 14.5C8.90909 11.6707 11.1707 9.40909 14 9.40909Z" fill="white"/>
</g>
<defs>
<clipPath id="clip0_1061_2725">
<rect width="28" height="28" fill="white" transform="translate(0 0.5)"/>
</clipPath>
</defs>
</svg>
