<svg width="28" height="23" viewBox="0 0 28 23" fill="none" xmlns="http://www.w3.org/2000/svg">
<g clip-path="url(#clip0_1061_2727)">
<path d="M28 3.10975C26.9516 3.55836 25.8394 3.8522 24.7007 3.98144C25.8995 3.28756 26.7967 2.19633 27.2253 0.910799C26.0978 1.55666 24.865 2.01271 23.5795 2.25949C22.792 1.44571 21.7693 0.879785 20.6446 0.635299C19.5198 0.390814 18.345 0.47908 17.2728 0.88862C16.2007 1.29816 15.2808 2.01003 14.6328 2.93166C13.9848 3.85329 13.6387 4.94204 13.6395 6.05635C13.6395 6.49275 13.6897 6.91563 13.7912 7.32046C11.5063 7.21176 9.2707 6.63891 7.23017 5.63924C5.18963 4.63958 3.38993 3.23553 1.94833 1.51861C1.43614 2.36606 1.16749 3.33039 1.17017 4.31184C1.17017 6.23677 2.18167 7.9373 3.72633 8.93303C2.81395 8.90504 1.9218 8.66607 1.12467 8.23613V8.30717C1.12388 9.58953 1.5825 10.8326 2.4226 11.8251C3.26269 12.8176 4.43242 13.4983 5.733 13.7516C4.88724 13.9757 3.99948 14.0089 3.13833 13.8485C3.50514 14.9517 4.2193 15.9166 5.18103 16.6085C6.14277 17.3003 7.30405 17.6845 8.50267 17.7074C7.31108 18.6114 5.94675 19.2794 4.48776 19.6732C3.02876 20.067 1.50375 20.1788 0 20.0022C2.62561 21.6354 5.68253 22.5026 8.80483 22.5C19.3725 22.5 25.1522 14.038 25.1522 6.69912C25.1522 6.46231 25.1428 6.21873 25.1335 5.98079C26.2565 5.19487 27.2269 4.22329 28 3.11088V3.10975Z" fill="white"/>
</g>
<defs>
<clipPath id="clip0_1061_2727">
<rect width="28" height="22" fill="white" transform="translate(0 0.5)"/>
</clipPath>
</defs>
</svg>
