<svg width="28" height="23" viewBox="0 0 28 23" fill="none" xmlns="http://www.w3.org/2000/svg">
<g clip-path="url(#clip0_1061_2731)">
<path d="M14 0.5C9.94431 0.5 6.36031 0.929 4.17308 1.2568C2.36385 1.5274 0.904615 2.9189 0.571846 4.7625C0.290769 6.3311 0 8.6257 0 11.5C0 14.3743 0.290769 16.67 0.571846 18.2375C0.904615 20.0811 2.36385 21.477 4.17308 21.7443C6.37 22.0699 9.96585 22.5 14 22.5C18.0342 22.5 21.6311 22.071 23.8269 21.7432C25.6362 21.477 27.0954 20.0811 27.4282 18.2375C27.7092 16.6645 28 14.3655 28 11.5C28 8.6345 27.7135 6.3355 27.4282 4.7625C27.0954 2.9189 25.6362 1.5274 23.8269 1.2557C21.6397 0.9301 18.0546 0.5 14 0.5ZM14 2.7C17.9125 2.7 21.4082 3.1081 23.5243 3.4216C23.9641 3.48581 24.3729 3.68968 24.693 4.00436C25.0131 4.31904 25.2281 4.72858 25.3077 5.175C25.5683 6.627 25.8462 8.7797 25.8462 11.5C25.8462 14.2159 25.5683 16.373 25.3077 17.825C25.2295 18.272 25.0149 18.6824 24.6946 18.9973C24.3743 19.3122 23.9646 19.5156 23.5243 19.5784C21.3985 19.8919 17.8866 20.3 14 20.3C10.1123 20.3 6.59615 19.8919 4.47569 19.5784C4.03567 19.5148 3.62648 19.3112 3.30631 18.9964C2.98613 18.6816 2.77128 18.2717 2.69231 17.825C2.43169 16.373 2.15385 14.2247 2.15385 11.5C2.15385 8.772 2.43169 6.627 2.69231 5.175C2.77128 4.7283 2.98613 4.31841 3.30631 4.00362C3.62648 3.68883 4.03567 3.48517 4.47569 3.4216C6.58754 3.1081 10.0875 2.7 14 2.7ZM10.7692 5.2091V17.792L12.3846 16.8636L19.9231 12.4636L21.5385 11.5L19.9231 10.5375L12.3846 6.1375L10.7692 5.2091ZM12.9231 8.9909L17.1974 11.5L12.9231 14.0091V8.9909Z" fill="white"/>
</g>
<defs>
<clipPath id="clip0_1061_2731">
<rect width="28" height="22" fill="white" transform="translate(0 0.5)"/>
</clipPath>
</defs>
</svg>
